<?xml version="1.0" encoding="UTF-8" standalone="no" ?>
<!DOCTYPE svg PUBLIC "-//W3C//DTD SVG 1.1//EN" "http://www.w3.org/Graphics/SVG/1.1/DTD/svg11.dtd">
<svg xmlns="http://www.w3.org/2000/svg" xmlns:xlink="http://www.w3.org/1999/xlink" version="1.1" width="1080" height="1080" viewBox="0 0 1080 1080" xml:space="preserve">
<desc>Created with Fabric.js 5.2.4</desc>
<defs>
</defs>
<g transform="matrix(1 0 0 1 540 540)" id="ffcf0658-11d4-4712-a571-98c77d97a00b"  >
</g>
<g transform="matrix(1 0 0 1 540 540)" id="305c75a6-b525-4192-b6ed-a9c997c5b5ba"  >
<rect style="stroke: none; stroke-width: 1; stroke-dasharray: none; stroke-linecap: butt; stroke-dashoffset: 0; stroke-linejoin: miter; stroke-miterlimit: 4; fill: rgb(255,255,255); fill-rule: nonzero; opacity: 1; visibility: hidden;" vector-effect="non-scaling-stroke"  x="-540" y="-540" rx="0" ry="0" width="1080" height="1080" />
</g>
<g transform="matrix(5.5 0 0 5.38 1845.11 555.75)"  >
<g style="" vector-effect="non-scaling-stroke"   >
		<g transform="matrix(1 0 0 1 47.55 -0.62)"  >
<path style="stroke: none; stroke-width: 1; stroke-dasharray: none; stroke-linecap: butt; stroke-dashoffset: 0; stroke-linejoin: miter; stroke-miterlimit: 4; fill: rgb(11,140,76); fill-rule: evenodd; opacity: 1;" vector-effect="non-scaling-stroke"  transform=" translate(-332.96, -59.36)" d="M 350.64 47.88 C 348.63 44.82 346.04 42.47 342.88 40.79 C 339.72 39.11 336.36 38.3 332.82 38.3 C 329.04 38.3 325.53 39.26 322.36 41.18 C 319.2 43.1 316.71 45.68 314.89 48.89 C 313.07 52.1 312.16 55.65 312.11 59.47 C 312.11 63.26 313.02 66.76 314.89 69.97 C 316.71 73.18 319.25 75.72 322.46 77.59 C 325.67 79.46 329.22 80.42 333.05 80.42 C 337.12 80.42 340.91 79.37 344.31 77.21 C 347.7 75.06 350.34 72.23 352.11 68.68 L 352.45 68.01 L 342.17 67.91 L 342.03 68.06 C 339.69 70.62 336.64 71.89 332.82 71.89 C 329.73 71.89 327.13 70.99 325.02 69.19 C 323.04 67.46 321.85 65.31 321.45 62.7 L 353.51 62.7 L 353.56 62.29 C 353.7 61.19 353.8 59.96 353.8 58.62 C 353.7 54.55 352.65 50.95 350.63 47.87 L 350.64 47.88 Z M 321.59 55.35 C 322.35 52.9 323.7 50.89 325.62 49.34 C 327.69 47.68 330.16 46.82 333.1 46.82 C 335.8 46.82 338.23 47.67 340.35 49.39 C 342.31 50.98 343.66 52.95 344.42 55.35 L 321.59 55.35 Z" stroke-linecap="round" />
</g>
		<g transform="matrix(1 0 0 1 -42.06 -0.65)"  >
<path style="stroke: none; stroke-width: 1; stroke-dasharray: none; stroke-linecap: butt; stroke-dashoffset: 0; stroke-linejoin: miter; stroke-miterlimit: 4; fill: rgb(11,140,76); fill-rule: evenodd; opacity: 1;" vector-effect="non-scaling-stroke"  transform=" translate(-243.35, -59.33)" d="M 253.88 41.12 C 250.62 39.25 247.12 38.34 243.35 38.29 C 239.57 38.29 236.02 39.25 232.81 41.12 C 229.55 42.99 227.01 45.58 225.14 48.79 C 223.27 52 222.31 55.55 222.31 59.33 C 222.31 63.11 223.27 66.66 225.14 69.87 C 227.01 73.13 229.6 75.67 232.81 77.54 C 236.02 79.41 239.57 80.37 243.35 80.37 C 247.13 80.37 250.68 79.41 253.89 77.54 C 257.15 75.67 259.69 73.08 261.56 69.87 C 263.43 66.66 264.39 63.11 264.39 59.33 C 264.39 55.55 263.43 52 261.56 48.79 C 259.69 45.53 257.1 42.99 253.89 41.12 L 253.88 41.12 Z M 254.03 65.65 C 252.94 67.55 251.5 69.08 249.66 70.16 C 247.82 71.29 245.75 71.83 243.44 71.83 C 241.13 71.83 239.01 71.24 237.16 70.16 C 235.27 69.08 233.78 67.55 232.7 65.65 C 231.58 63.75 231.03 61.64 231.03 59.32 C 231.03 57 231.57 54.89 232.65 52.99 C 233.74 51.09 235.22 49.56 237.11 48.48 C 239 47.35 241.07 46.81 243.43 46.81 C 245.79 46.81 247.86 47.4 249.71 48.48 C 251.56 49.56 253.04 51.09 254.08 52.99 C 255.12 54.89 255.66 57.01 255.66 59.32 C 255.66 61.63 255.12 63.75 254.04 65.65 L 254.03 65.65 Z" stroke-linecap="round" />
</g>
		<g transform="matrix(1 0 0 1 -100.14 -0.96)"  >
<path style="stroke: none; stroke-width: 1; stroke-dasharray: none; stroke-linecap: butt; stroke-dashoffset: 0; stroke-linejoin: miter; stroke-miterlimit: 4; fill: rgb(11,140,76); fill-rule: evenodd; opacity: 1;" vector-effect="non-scaling-stroke"  transform=" translate(-185.27, -59.02)" d="M 211.53 43.4 C 208.24 40.02 203.95 38.34 198.69 38.34 C 195.67 38.34 192.93 38.96 190.51 40.27 C 188.32 41.41 186.57 43.1 185.29 45.26 C 183.98 43.11 182.27 41.45 180.08 40.27 C 177.66 38.96 174.91 38.34 171.89 38.34 C 166.58 38.34 162.24 40.02 159 43.4 C 155.75 46.8 154.14 51.8 154.14 58.29 L 154.14 79.7 L 162.85 79.7 L 162.85 58.29 C 162.85 54.36 163.68 51.49 165.22 49.64 C 166.8 47.75 168.96 46.81 171.89 46.81 C 174.82 46.81 177.02 47.8 178.56 49.64 C 180.1 51.49 180.89 54.35 180.89 58.29 L 180.89 79.7 L 189.6 79.7 L 189.6 58.29 C 189.6 54.36 190.43 51.49 191.97 49.64 C 193.55 47.75 195.71 46.81 198.64 46.81 C 201.57 46.81 203.77 47.8 205.31 49.64 C 206.85 51.49 207.64 54.35 207.64 58.29 L 207.64 79.7 L 216.4 79.7 L 216.4 58.29 C 216.4 51.8 214.79 46.79 211.54 43.4 L 211.53 43.4 Z" stroke-linecap="round" />
</g>
		<g transform="matrix(1 0 0 1 2.77 -0.98)"  >
<path style="stroke: none; stroke-width: 1; stroke-dasharray: none; stroke-linecap: butt; stroke-dashoffset: 0; stroke-linejoin: miter; stroke-miterlimit: 4; fill: rgb(11,140,76); fill-rule: evenodd; opacity: 1;" vector-effect="non-scaling-stroke"  transform=" translate(-288.18, -59)" d="M 288.17 38.29 C 282.77 38.29 278.38 39.97 275.09 43.35 C 271.79 46.75 270.18 51.76 270.18 58.29 L 270.18 79.7 L 278.94 79.7 L 278.94 58.29 C 278.94 54.36 279.77 51.49 281.36 49.65 C 282.94 47.76 285.18 46.82 288.22 46.82 C 291.26 46.82 293.5 47.81 295.08 49.65 C 296.66 51.5 297.5 54.36 297.5 58.29 L 297.5 79.7 L 306.17 79.7 L 306.17 79.23 L 306.17 58.29 C 306.17 51.75 304.56 46.74 301.26 43.35 C 297.97 39.96 293.58 38.29 288.18 38.29 L 288.17 38.29 Z" stroke-linecap="round" />
</g>
		<g transform="matrix(1 0 0 1 196.18 -0.64)"  >
<path style="stroke: none; stroke-width: 1; stroke-dasharray: none; stroke-linecap: butt; stroke-dashoffset: 0; stroke-linejoin: miter; stroke-miterlimit: 4; fill: rgb(11,140,76); fill-rule: evenodd; opacity: 1;" vector-effect="non-scaling-stroke"  transform=" translate(-481.59, -59.34)" d="M 499.25 47.88 C 497.24 44.82 494.65 42.47 491.49 40.79 C 488.33 39.11 484.97 38.3 481.43 38.3 C 477.65 38.3 474.14 39.26 470.97 41.18 C 467.81 43.1 465.32 45.68 463.5 48.89 C 461.68 52.1 460.77 55.65 460.77 59.43 C 460.77 63.21 461.68 66.71 463.55 69.92 C 465.37 73.13 467.91 75.67 471.12 77.54 C 474.33 79.41 477.88 80.37 481.71 80.37 C 485.78 80.37 489.57 79.32 492.97 77.16 C 496.36 75.01 499 72.18 500.77 68.63 L 501.11 67.96 L 490.78 67.91 L 490.64 68.06 C 488.3 70.62 485.25 71.89 481.43 71.89 C 478.34 71.89 475.74 70.99 473.63 69.19 C 471.65 67.46 470.46 65.31 470.06 62.7 L 502.12 62.7 L 502.17 62.29 C 502.31 61.19 502.41 59.96 502.41 58.62 C 502.31 54.55 501.26 50.95 499.24 47.87 L 499.25 47.88 Z M 470.2 55.35 C 470.96 52.9 472.31 50.89 474.23 49.34 C 476.3 47.68 478.77 46.82 481.71 46.82 C 484.41 46.82 486.84 47.67 488.96 49.39 C 490.92 50.98 492.27 52.95 493.03 55.35 L 470.2 55.35 Z" stroke-linecap="round" />
</g>
		<g transform="matrix(1 0 0 1 254.24 -0.96)"  >
<path style="stroke: none; stroke-width: 1; stroke-dasharray: none; stroke-linecap: butt; stroke-dashoffset: 0; stroke-linejoin: miter; stroke-miterlimit: 4; fill: rgb(11,140,76); fill-rule: evenodd; opacity: 1;" vector-effect="non-scaling-stroke"  transform=" translate(-539.65, -59.02)" d="M 562.06 38.34 L 562.06 59.75 C 562.06 63.68 561.27 66.55 559.73 68.4 C 558.25 70.29 556.05 71.23 553.07 71.23 C 550.09 71.23 547.94 70.24 546.4 68.4 C 544.86 66.55 544.03 63.68 544.03 59.75 L 544.03 38.34 L 535.27 38.34 L 535.27 59.75 C 535.27 63.68 534.48 66.55 532.94 68.4 C 531.46 70.29 529.26 71.23 526.28 71.23 C 523.3 71.23 521.15 70.24 519.61 68.4 C 518.07 66.55 517.24 63.68 517.24 59.75 L 517.24 38.34 L 508.48 38.34 L 508.48 59.75 C 508.48 66.24 510.09 71.25 513.34 74.64 C 516.63 78.03 520.92 79.7 526.23 79.7 C 529.25 79.7 531.99 79.08 534.41 77.77 C 536.6 76.63 538.35 74.94 539.63 72.78 C 540.94 74.93 542.65 76.59 544.84 77.77 C 547.26 79.08 550.01 79.7 553.03 79.7 C 558.34 79.7 562.63 78.02 565.97 74.64 C 569.22 71.24 570.83 66.23 570.83 59.74 L 570.83 38.33 L 562.07 38.33 L 562.06 38.34 Z" stroke-linecap="round" />
</g>
		<g transform="matrix(1 0 0 1 92.44 7.34)"  >
<path style="stroke: none; stroke-width: 1; stroke-dasharray: none; stroke-linecap: butt; stroke-dashoffset: 0; stroke-linejoin: miter; stroke-miterlimit: 4; fill: rgb(11,140,76); fill-rule: evenodd; opacity: 1;" vector-effect="non-scaling-stroke"  transform=" translate(-377.85, -67.31)" d="M 387.12 60.83 C 387.12 64.61 386.29 67.34 384.71 69.14 C 383.13 70.94 380.89 71.84 377.85 71.84 C 374.81 71.84 372.57 70.85 370.99 69.01 C 369.41 67.16 368.57 64.3 368.57 60.37 L 368.57 38.96 L 359.81 38.96 L 359.81 60.32 C 359.81 66.86 361.42 71.87 364.72 75.26 C 368.01 78.65 372.4 80.32 377.8 80.32 C 379.77 80.32 381.66 79.98 383.4 79.3 C 384.73 78.77 385.91 78.06 386.93 77.16 L 386.93 78.2 C 386.93 80.86 386.12 83.03 384.49 84.66 C 382.91 86.29 380.65 87.15 377.8 87.15 C 374.41 87.15 371.84 85.65 370 82.6 L 369.86 82.37 L 360.17 82.37 L 360.4 83 C 361.79 86.83 364.04 89.9 367.07 92.21 C 370.11 94.53 373.68 95.63 377.94 95.68 C 381.34 95.68 384.42 94.86 387.17 93.27 C 389.86 91.63 392.03 89.42 393.57 86.63 C 395.11 83.79 395.88 80.67 395.88 77.27 L 395.88 38.95 L 387.12 38.95 L 387.12 60.83 L 387.12 60.83 Z" stroke-linecap="round" />
</g>
		<g transform="matrix(1 0 0 1 164.2 -30.83)"  >
<path style="stroke: none; stroke-width: 1; stroke-dasharray: none; stroke-linecap: butt; stroke-dashoffset: 0; stroke-linejoin: miter; stroke-miterlimit: 4; fill: rgb(11,140,76); fill-rule: evenodd; opacity: 1;" vector-effect="non-scaling-stroke"  transform=" translate(-449.61, -29.15)" d="M 449.66 23.91 C 448.22 23.91 446.99 24.43 445.96 25.4 C 444.92 26.39 444.41 27.69 444.41 29.16 C 444.41 30.63 444.93 31.84 445.95 32.86 C 446.97 33.88 448.22 34.4 449.65 34.4 C 451.08 34.4 452.33 33.88 453.32 32.85 C 454.29 31.83 454.81 30.59 454.81 29.15 C 454.81 27.71 454.29 26.48 453.32 25.45 C 452.34 24.42 451.09 23.9 449.65 23.9 L 449.66 23.91 Z" stroke-linecap="round" />
</g>
		<g transform="matrix(1 0 0 1 164.28 -0.65)"  >
<path style="stroke: none; stroke-width: 1; stroke-dasharray: none; stroke-linecap: butt; stroke-dashoffset: 0; stroke-linejoin: miter; stroke-miterlimit: 4; fill: rgb(11,140,76); fill-rule: nonzero; opacity: 1;" vector-effect="non-scaling-stroke"  transform=" translate(-449.69, -59.33)" d="M 454.07 38.95 L 445.31 38.95 L 445.31 79.71 L 454.07 79.71 L 454.07 38.95 Z" stroke-linecap="round" />
</g>
		<g transform="matrix(1 0 0 1 134.69 -0.65)"  >
<path style="stroke: none; stroke-width: 1; stroke-dasharray: none; stroke-linecap: butt; stroke-dashoffset: 0; stroke-linejoin: miter; stroke-miterlimit: 4; fill: rgb(11,140,76); fill-rule: evenodd; opacity: 1;" vector-effect="non-scaling-stroke"  transform=" translate(-420.1, -59.33)" d="M 420.06 67.85 L 408.66 38.95 L 399.45 38.95 L 415.85 79.71 L 424.31 79.71 L 440.75 38.95 L 431.54 38.95 L 420.06 67.85 Z" stroke-linecap="round" />
</g>
		<g transform="matrix(1 0 0 1 -228.72 -13.35)"  >
<path style="stroke: none; stroke-width: 1; stroke-dasharray: none; stroke-linecap: butt; stroke-dashoffset: 0; stroke-linejoin: miter; stroke-miterlimit: 4; fill: rgb(11,140,76); fill-rule: evenodd; opacity: 1;" vector-effect="non-scaling-stroke"  transform=" translate(-56.69, -46.63)" d="M 56.69 3.29999 C 25.38 3.29999 0 28.68 0 59.99 C 0 71 3.14999 81.27 8.57999 89.97 L 28.06 46.29 C 29.13 43.89 31.51 42.33 34.15 42.33 L 34.17 42.33 C 36.81 42.33 39.19 43.85 40.28 46.25 L 51.24 70.4 L 69.79 29.72 C 70.88 27.32 73.26 25.8 75.88 25.8 L 75.92 25.8 C 78.56 25.82 80.94 27.38 82.01 29.8 L 106.83 86.45 C 111.01 78.55 113.38 69.55 113.38 60 C 113.38 28.69 88 3.30998 56.69 3.30998 L 56.69 3.29999 Z" stroke-linecap="round" />
</g>
		<g transform="matrix(1 0 0 1 -227.5 24.26)"  >
<path style="stroke: none; stroke-width: 1; stroke-dasharray: none; stroke-linecap: butt; stroke-dashoffset: 0; stroke-linejoin: miter; stroke-miterlimit: 4; fill: rgb(11,140,76); fill-rule: evenodd; opacity: 1;" vector-effect="non-scaling-stroke"  transform=" translate(-57.91, -84.25)" d="M 73.8 53.04 L 57.28 89.26 C 56.19 91.66 53.81 93.18 51.19 93.18 C 48.57 93.18 46.19 91.64 45.1 89.26 L 36.13 69.47 C 35.4 67.86 33.1 67.86 32.36 69.49 L 18.09 101.49 C 28.21 110.9 41.77 116.67 56.68 116.67 C 72.84 116.67 87.4 109.9 97.73 99.06 L 77.58 53.06 C 76.85 51.43 74.53 51.41 73.79 53.04 L 73.8 53.04 Z" stroke-linecap="round" />
</g>
</g>
</g>
</svg>